<mxfile host="app.diagrams.net" modified="2024-01-09T03:38:19.334Z" agent="Mozilla/5.0 (Windows NT 10.0; Win64; x64) AppleWebKit/537.36 (KHTML, like Gecko) Chrome/120.0.0.0 Safari/537.36 Edg/120.0.0.0" etag="V81jEc3q7enpLt1nPaSn" version="22.1.17" type="github">
  <diagram name="Trang-1" id="ER4wUnBnk97Xg_GWKOxj">
    <mxGraphModel dx="441" dy="1476" grid="1" gridSize="10" guides="1" tooltips="1" connect="1" arrows="1" fold="1" page="1" pageScale="1" pageWidth="827" pageHeight="1169" math="0" shadow="0">
      <root>
        <mxCell id="0" />
        <mxCell id="1" parent="0" />
        <mxCell id="s5Z9yiFXvZ2uZ-HgDR5P-3" style="edgeStyle=orthogonalEdgeStyle;rounded=0;orthogonalLoop=1;jettySize=auto;html=1;exitX=0.5;exitY=1;exitDx=0;exitDy=0;labelBackgroundColor=none;strokeColor=#457B9D;fontColor=default;entryX=0.498;entryY=0.035;entryDx=0;entryDy=0;entryPerimeter=0;fontSize=15;" parent="1" source="Ut0xZS67pPm9S65PYU5N-2" target="UqTQKJ_4IadXjokfk2YP-3" edge="1">
          <mxGeometry relative="1" as="geometry">
            <mxPoint x="359.9999999999999" y="79.99999999999977" as="targetPoint" />
          </mxGeometry>
        </mxCell>
        <mxCell id="Ut0xZS67pPm9S65PYU5N-2" value="Bắt đầu" style="ellipse;whiteSpace=wrap;html=1;labelBackgroundColor=none;fillColor=#A8DADC;strokeColor=#457B9D;fontColor=#1D3557;rounded=1;fontSize=15;" parent="1" vertex="1">
          <mxGeometry x="280" y="-40" width="160" height="80" as="geometry" />
        </mxCell>
        <mxCell id="Ut0xZS67pPm9S65PYU5N-5" style="edgeStyle=orthogonalEdgeStyle;rounded=1;orthogonalLoop=1;jettySize=auto;html=1;exitX=0.5;exitY=1;exitDx=0;exitDy=0;entryX=0.5;entryY=0;entryDx=0;entryDy=0;labelBackgroundColor=none;strokeColor=#457B9D;fontColor=default;fontSize=15;" parent="1" source="Ut0xZS67pPm9S65PYU5N-6" edge="1">
          <mxGeometry relative="1" as="geometry">
            <mxPoint x="360" y="680" as="targetPoint" />
          </mxGeometry>
        </mxCell>
        <mxCell id="Ut0xZS67pPm9S65PYU5N-6" value="Gửi Post-Requests&lt;br style=&quot;font-size: 15px;&quot;&gt;&amp;nbsp;&quot;new_connect:{địa chỉ ip máy}&quot;" style="rounded=1;whiteSpace=wrap;html=1;labelBackgroundColor=none;fillColor=#A8DADC;strokeColor=#457B9D;fontColor=#1D3557;fontSize=15;" parent="1" vertex="1">
          <mxGeometry x="280" y="560" width="160" height="80" as="geometry" />
        </mxCell>
        <mxCell id="Ut0xZS67pPm9S65PYU5N-38" style="edgeStyle=orthogonalEdgeStyle;rounded=1;orthogonalLoop=1;jettySize=auto;html=1;entryX=0.5;entryY=0;entryDx=0;entryDy=0;labelBackgroundColor=none;strokeColor=#457B9D;fontColor=default;exitX=0.5;exitY=0.035;exitDx=0;exitDy=0;exitPerimeter=0;fontSize=15;" parent="1" source="UqTQKJ_4IadXjokfk2YP-1" edge="1">
          <mxGeometry relative="1" as="geometry">
            <mxPoint x="360" y="320" as="targetPoint" />
            <mxPoint x="360" y="280" as="sourcePoint" />
          </mxGeometry>
        </mxCell>
        <mxCell id="Ut0xZS67pPm9S65PYU5N-12" style="edgeStyle=orthogonalEdgeStyle;rounded=1;orthogonalLoop=1;jettySize=auto;html=1;exitX=0.5;exitY=1;exitDx=0;exitDy=0;labelBackgroundColor=none;strokeColor=#457B9D;fontColor=default;fontSize=15;" parent="1" edge="1">
          <mxGeometry relative="1" as="geometry">
            <mxPoint x="359.57894736842104" y="800" as="targetPoint" />
            <mxPoint x="360" y="760" as="sourcePoint" />
          </mxGeometry>
        </mxCell>
        <mxCell id="Ut0xZS67pPm9S65PYU5N-26" style="edgeStyle=orthogonalEdgeStyle;rounded=1;orthogonalLoop=1;jettySize=auto;html=1;entryX=0.5;entryY=0;entryDx=0;entryDy=0;labelBackgroundColor=none;strokeColor=#457B9D;fontColor=default;fontSize=15;" parent="1" source="Ut0xZS67pPm9S65PYU5N-15" target="Ut0xZS67pPm9S65PYU5N-25" edge="1">
          <mxGeometry relative="1" as="geometry" />
        </mxCell>
        <mxCell id="Ut0xZS67pPm9S65PYU5N-15" value="Gửi Post-Requests&lt;br style=&quot;font-size: 15px;&quot;&gt;&amp;nbsp;danh sách lịch sử theo id" style="rounded=1;whiteSpace=wrap;html=1;labelBackgroundColor=none;fillColor=#A8DADC;strokeColor=#457B9D;fontColor=#1D3557;fontSize=15;" parent="1" vertex="1">
          <mxGeometry x="280" y="800" width="160" height="80" as="geometry" />
        </mxCell>
        <mxCell id="Ut0xZS67pPm9S65PYU5N-16" value="&amp;nbsp;Kết thúc" style="ellipse;whiteSpace=wrap;html=1;labelBackgroundColor=none;fillColor=#A8DADC;strokeColor=#457B9D;fontColor=#1D3557;rounded=1;fontSize=15;" parent="1" vertex="1">
          <mxGeometry x="280" y="1400" width="160" height="80" as="geometry" />
        </mxCell>
        <mxCell id="Ut0xZS67pPm9S65PYU5N-37" style="edgeStyle=orthogonalEdgeStyle;rounded=1;orthogonalLoop=1;jettySize=auto;html=1;exitX=0.5;exitY=1;exitDx=0;exitDy=0;labelBackgroundColor=none;strokeColor=#457B9D;fontColor=default;fontSize=15;" parent="1" target="Ut0xZS67pPm9S65PYU5N-6" edge="1">
          <mxGeometry relative="1" as="geometry">
            <mxPoint x="360" y="520" as="sourcePoint" />
          </mxGeometry>
        </mxCell>
        <mxCell id="Ut0xZS67pPm9S65PYU5N-24" value="server_id =&lt;br&gt;&amp;nbsp;{dữ liệu trả về}" style="shape=parallelogram;perimeter=parallelogramPerimeter;whiteSpace=wrap;html=1;fixedSize=1;labelBackgroundColor=none;fillColor=#A8DADC;strokeColor=#457B9D;fontColor=#1D3557;rounded=1;fontSize=15;" parent="1" vertex="1">
          <mxGeometry x="280" y="680" width="160" height="80" as="geometry" />
        </mxCell>
        <mxCell id="Ut0xZS67pPm9S65PYU5N-29" style="edgeStyle=orthogonalEdgeStyle;rounded=1;orthogonalLoop=1;jettySize=auto;html=1;exitX=0.5;exitY=1;exitDx=0;exitDy=0;entryX=0.5;entryY=0;entryDx=0;entryDy=0;labelBackgroundColor=none;strokeColor=#457B9D;fontColor=default;fontSize=15;" parent="1" source="Ut0xZS67pPm9S65PYU5N-25" target="Ut0xZS67pPm9S65PYU5N-28" edge="1">
          <mxGeometry relative="1" as="geometry" />
        </mxCell>
        <mxCell id="Ut0xZS67pPm9S65PYU5N-25" value="Gửi Post-Requests&lt;br style=&quot;font-size: 15px;&quot;&gt;&quot;get_blacklist:blacklist&quot;" style="rounded=1;whiteSpace=wrap;html=1;labelBackgroundColor=none;fillColor=#A8DADC;strokeColor=#457B9D;fontColor=#1D3557;fontSize=15;" parent="1" vertex="1">
          <mxGeometry x="280" y="920" width="160" height="80" as="geometry" />
        </mxCell>
        <mxCell id="s5Z9yiFXvZ2uZ-HgDR5P-8" style="edgeStyle=orthogonalEdgeStyle;rounded=0;orthogonalLoop=1;jettySize=auto;html=1;exitX=0.5;exitY=1;exitDx=0;exitDy=0;labelBackgroundColor=none;strokeColor=#457B9D;fontColor=default;entryX=0.502;entryY=0.045;entryDx=0;entryDy=0;entryPerimeter=0;fontSize=15;" parent="1" source="Ut0xZS67pPm9S65PYU5N-28" target="UqTQKJ_4IadXjokfk2YP-6" edge="1">
          <mxGeometry relative="1" as="geometry">
            <mxPoint x="360" y="1160" as="targetPoint" />
          </mxGeometry>
        </mxCell>
        <mxCell id="Ut0xZS67pPm9S65PYU5N-28" value="Ghi dữ liệu trả về vào file_path" style="rounded=1;whiteSpace=wrap;html=1;labelBackgroundColor=none;fillColor=#A8DADC;strokeColor=#457B9D;fontColor=#1D3557;fontSize=15;" parent="1" vertex="1">
          <mxGeometry x="280" y="1040" width="160" height="80" as="geometry" />
        </mxCell>
        <mxCell id="Ut0xZS67pPm9S65PYU5N-36" style="edgeStyle=orthogonalEdgeStyle;rounded=1;orthogonalLoop=1;jettySize=auto;html=1;exitX=0.5;exitY=1;exitDx=0;exitDy=0;entryX=0.5;entryY=0;entryDx=0;entryDy=0;labelBackgroundColor=none;strokeColor=#457B9D;fontColor=default;fontSize=15;" parent="1" edge="1">
          <mxGeometry relative="1" as="geometry">
            <mxPoint x="360" y="400" as="sourcePoint" />
            <mxPoint x="360" y="440" as="targetPoint" />
          </mxGeometry>
        </mxCell>
        <mxCell id="Ut0xZS67pPm9S65PYU5N-45" value="Nhận server_ip&lt;br style=&quot;font-size: 15px;&quot;&gt;Nhận file_path" style="rounded=1;whiteSpace=wrap;html=1;labelBackgroundColor=none;fillColor=#A8DADC;strokeColor=#457B9D;fontColor=#1D3557;fontSize=15;" parent="1" vertex="1">
          <mxGeometry x="280" y="320" width="160" height="80" as="geometry" />
        </mxCell>
        <mxCell id="Ut0xZS67pPm9S65PYU5N-46" value="Xóa tất cả dữ liệu file_path" style="rounded=1;whiteSpace=wrap;html=1;labelBackgroundColor=none;fillColor=#A8DADC;strokeColor=#457B9D;fontColor=#1D3557;fontSize=15;" parent="1" vertex="1">
          <mxGeometry x="280" y="440" width="160" height="80" as="geometry" />
        </mxCell>
        <mxCell id="s5Z9yiFXvZ2uZ-HgDR5P-4" style="edgeStyle=orthogonalEdgeStyle;rounded=0;orthogonalLoop=1;jettySize=auto;html=1;exitX=0.498;exitY=0.05;exitDx=0;exitDy=0;entryX=0.5;entryY=0.045;entryDx=0;entryDy=0;labelBackgroundColor=none;strokeColor=#457B9D;fontColor=default;exitPerimeter=0;entryPerimeter=0;fontSize=15;" parent="1" source="UqTQKJ_4IadXjokfk2YP-3" target="UqTQKJ_4IadXjokfk2YP-1" edge="1">
          <mxGeometry relative="1" as="geometry">
            <mxPoint x="359.9999999999999" y="159.99999999999977" as="sourcePoint" />
            <mxPoint x="360" y="200" as="targetPoint" />
          </mxGeometry>
        </mxCell>
        <mxCell id="s5Z9yiFXvZ2uZ-HgDR5P-15" value="Đúng" style="edgeLabel;html=1;align=center;verticalAlign=middle;resizable=0;points=[];labelBackgroundColor=none;fontColor=#1D3557;fontSize=15;" parent="s5Z9yiFXvZ2uZ-HgDR5P-4" vertex="1" connectable="0">
          <mxGeometry x="-0.25" relative="1" as="geometry">
            <mxPoint x="20" y="5" as="offset" />
          </mxGeometry>
        </mxCell>
        <mxCell id="UqTQKJ_4IadXjokfk2YP-10" value="Đúng" style="edgeLabel;html=1;align=center;verticalAlign=middle;resizable=0;points=[];fontColor=#1D3557;labelBackgroundColor=none;" vertex="1" connectable="0" parent="s5Z9yiFXvZ2uZ-HgDR5P-4">
          <mxGeometry x="0.5436" y="-1" relative="1" as="geometry">
            <mxPoint x="21" as="offset" />
          </mxGeometry>
        </mxCell>
        <mxCell id="s5Z9yiFXvZ2uZ-HgDR5P-7" style="edgeStyle=orthogonalEdgeStyle;rounded=0;orthogonalLoop=1;jettySize=auto;html=1;entryX=1;entryY=0.5;entryDx=0;entryDy=0;labelBackgroundColor=none;strokeColor=#457B9D;fontColor=default;exitX=0.03;exitY=0.525;exitDx=0;exitDy=0;exitPerimeter=0;fontSize=15;" parent="1" source="UqTQKJ_4IadXjokfk2YP-3" target="Ut0xZS67pPm9S65PYU5N-16" edge="1">
          <mxGeometry relative="1" as="geometry">
            <Array as="points">
              <mxPoint x="283" y="120" />
              <mxPoint x="480" y="120" />
              <mxPoint x="480" y="1440" />
            </Array>
            <mxPoint x="439.9999999999999" y="119.99999999999977" as="sourcePoint" />
          </mxGeometry>
        </mxCell>
        <mxCell id="s5Z9yiFXvZ2uZ-HgDR5P-16" value="Sai" style="edgeLabel;html=1;align=center;verticalAlign=middle;resizable=0;points=[];labelBackgroundColor=none;fontColor=#1D3557;fontSize=15;" parent="s5Z9yiFXvZ2uZ-HgDR5P-7" vertex="1" connectable="0">
          <mxGeometry x="-0.2586" y="3" relative="1" as="geometry">
            <mxPoint x="17" y="121" as="offset" />
          </mxGeometry>
        </mxCell>
        <mxCell id="s5Z9yiFXvZ2uZ-HgDR5P-11" style="edgeStyle=orthogonalEdgeStyle;rounded=0;orthogonalLoop=1;jettySize=auto;html=1;exitX=0.965;exitY=0.52;exitDx=0;exitDy=0;labelBackgroundColor=none;strokeColor=#457B9D;fontColor=default;entryX=0.032;entryY=0.505;entryDx=0;entryDy=0;entryPerimeter=0;exitPerimeter=0;fontSize=15;" parent="1" source="UqTQKJ_4IadXjokfk2YP-6" target="UqTQKJ_4IadXjokfk2YP-1" edge="1">
          <mxGeometry relative="1" as="geometry">
            <Array as="points">
              <mxPoint x="437" y="1200" />
              <mxPoint x="240" y="1200" />
              <mxPoint x="240" y="240" />
            </Array>
            <mxPoint x="280" y="1200" as="sourcePoint" />
            <mxPoint x="280" y="240" as="targetPoint" />
          </mxGeometry>
        </mxCell>
        <mxCell id="s5Z9yiFXvZ2uZ-HgDR5P-19" value="Sai" style="edgeLabel;html=1;align=center;verticalAlign=middle;resizable=0;points=[];labelBackgroundColor=none;fontColor=#1D3557;fontSize=15;" parent="s5Z9yiFXvZ2uZ-HgDR5P-11" vertex="1" connectable="0">
          <mxGeometry x="0.075" y="2" relative="1" as="geometry">
            <mxPoint x="-18" y="39" as="offset" />
          </mxGeometry>
        </mxCell>
        <mxCell id="s5Z9yiFXvZ2uZ-HgDR5P-14" style="edgeStyle=orthogonalEdgeStyle;rounded=0;orthogonalLoop=1;jettySize=auto;html=1;exitX=0.5;exitY=1;exitDx=0;exitDy=0;entryX=0.5;entryY=0;entryDx=0;entryDy=0;labelBackgroundColor=none;strokeColor=#457B9D;fontColor=default;fontSize=15;" parent="1" source="s5Z9yiFXvZ2uZ-HgDR5P-12" target="Ut0xZS67pPm9S65PYU5N-16" edge="1">
          <mxGeometry relative="1" as="geometry" />
        </mxCell>
        <mxCell id="s5Z9yiFXvZ2uZ-HgDR5P-12" value="server = False" style="rounded=1;whiteSpace=wrap;html=1;labelBackgroundColor=none;fillColor=#A8DADC;strokeColor=#457B9D;fontColor=#1D3557;fontSize=15;" parent="1" vertex="1">
          <mxGeometry x="280" y="1280" width="160" height="80" as="geometry" />
        </mxCell>
        <mxCell id="UqTQKJ_4IadXjokfk2YP-1" value="server = True" style="rhombus;whiteSpace=wrap;html=1;labelBackgroundColor=none;fillColor=#A8DADC;strokeColor=#457B9D;fontColor=#1D3557;rounded=1;fontSize=15;" vertex="1" parent="1">
          <mxGeometry x="277.5" y="200" width="165" height="80" as="geometry" />
        </mxCell>
        <mxCell id="UqTQKJ_4IadXjokfk2YP-3" value="&lt;font style=&quot;font-size: 14px;&quot;&gt;Người dùng &lt;br&gt;thực&amp;nbsp;hiện&amp;nbsp;kết nối&lt;/font&gt;" style="rhombus;whiteSpace=wrap;html=1;labelBackgroundColor=none;fillColor=#A8DADC;strokeColor=#457B9D;fontColor=#1D3557;rounded=1;fontSize=15;" vertex="1" parent="1">
          <mxGeometry x="277.5" y="80" width="165" height="80" as="geometry" />
        </mxCell>
        <mxCell id="UqTQKJ_4IadXjokfk2YP-7" style="edgeStyle=orthogonalEdgeStyle;rounded=0;orthogonalLoop=1;jettySize=auto;html=1;exitX=0.5;exitY=0.05;exitDx=0;exitDy=0;entryX=0.5;entryY=0;entryDx=0;entryDy=0;strokeColor=#457B9D;fontColor=default;fillColor=#A8DADC;exitPerimeter=0;fontSize=15;labelBackgroundColor=none;" edge="1" parent="1" source="UqTQKJ_4IadXjokfk2YP-6" target="s5Z9yiFXvZ2uZ-HgDR5P-12">
          <mxGeometry relative="1" as="geometry" />
        </mxCell>
        <mxCell id="UqTQKJ_4IadXjokfk2YP-9" value="Đúng" style="edgeLabel;html=1;align=center;verticalAlign=middle;resizable=0;points=[];fontColor=#1D3557;labelBackgroundColor=none;" vertex="1" connectable="0" parent="UqTQKJ_4IadXjokfk2YP-7">
          <mxGeometry x="0.5074" y="-2" relative="1" as="geometry">
            <mxPoint x="22" as="offset" />
          </mxGeometry>
        </mxCell>
        <mxCell id="UqTQKJ_4IadXjokfk2YP-6" value="&lt;font style=&quot;font-size: 14px;&quot;&gt;Người dùng thực&lt;br&gt;&amp;nbsp;hiện ngắt kết nối&lt;/font&gt;" style="rhombus;whiteSpace=wrap;html=1;labelBackgroundColor=none;fillColor=#A8DADC;strokeColor=#457B9D;fontColor=#1D3557;rounded=1;fontSize=15;" vertex="1" parent="1">
          <mxGeometry x="277.5" y="1160" width="165" height="80" as="geometry" />
        </mxCell>
      </root>
    </mxGraphModel>
  </diagram>
</mxfile>
